<?xml version="1.0" standalone="no"?>
<!DOCTYPE svg PUBLIC "-//W3C//DTD SVG 20010904//EN"
 "http://www.w3.org/TR/2001/REC-SVG-20010904/DTD/svg10.dtd">
<svg version="1.0" xmlns="http://www.w3.org/2000/svg"
 width="1152.000000pt" height="648.000000pt" viewBox="0 0 1152.000000 648.000000"
 preserveAspectRatio="xMidYMid meet">

<g transform="translate(0.000000,648.000000) scale(0.100000,-0.100000)"
 stroke="none">
<path d="M6210 3900 c0 -5 23 -10 50 -10 28 0 50 5 50 10 0 6 -22 10 -50 10
-27 0 -50 -4 -50 -10z"/>
<path d="M6343 3897 c2 -6 16 -14 31 -18 18 -5 26 -4 23 4 -2 6 -16 14 -31 18
-18 5 -26 4 -23 -4z"/>
<path d="M6091 3864 c-39 -19 -71 -39 -71 -43 0 -20 15 -18 45 4 17 14 49 31
70 38 22 8 41 19 43 25 6 19 -11 14 -87 -24z"/>
<path d="M6430 3871 c0 -5 16 -18 35 -30 28 -16 35 -17 35 -6 0 8 -13 21 -30
30 -34 17 -40 18 -40 6z"/>
<path d="M6252 3813 c-5 -10 -15 -58 -22 -108 -6 -49 -15 -108 -20 -130 -4
-22 -16 -91 -26 -154 -11 -74 -20 -108 -25 -95 -4 10 -24 73 -46 139 -28 87
-43 121 -55 123 -11 2 -18 -3 -18 -12 0 -25 -41 -46 -92 -46 -41 0 -48 3 -48
19 0 30 -19 35 -26 6 -8 -31 -48 -35 -64 -5 -20 36 -87 34 -112 -4 -14 -20 -8
-63 10 -78 33 -29 58 -30 90 -3 16 14 39 25 50 25 21 0 25 -8 37 -70 18 -86
108 -209 183 -249 38 -20 24 0 -41 60 -68 62 -110 136 -123 217 l-7 42 71 0
c42 0 74 5 78 11 8 14 47 -78 68 -162 18 -67 52 -139 66 -139 10 0 13 10 29
115 18 126 61 368 65 372 2 2 10 -22 19 -54 38 -140 54 -187 65 -191 6 -2 19
12 28 32 14 29 20 33 35 25 10 -5 65 -9 123 -9 l106 0 0 -36 c0 -20 -12 -63
-26 -95 -14 -32 -24 -64 -22 -71 7 -20 58 86 70 148 9 47 14 54 34 54 13 0 27
-6 31 -14 24 -40 90 -39 112 3 17 30 13 50 -14 76 -31 32 -59 32 -91 0 -39
-39 -60 -33 -68 18 -4 23 -14 56 -21 72 -14 29 -14 27 -9 -30 4 -33 7 -64 8
-70 0 -6 -40 -11 -101 -12 l-103 -2 -17 30 c-21 36 -38 37 -55 4 -14 -27 -13
-30 -84 213 -16 54 -27 64 -42 35z m-468 -288 c9 -24 -4 -45 -29 -45 -13 0
-25 7 -29 15 -9 24 4 45 29 45 13 0 25 -7 29 -15z m1031 -15 c0 -18 -6 -26
-23 -28 -13 -2 -25 3 -28 12 -10 26 4 48 28 44 17 -2 23 -10 23 -28z"/>
<path d="M6520 3823 c0 -6 9 -21 20 -34 15 -18 19 -20 20 -8 0 9 -9 24 -20 34
-11 10 -20 13 -20 8z"/>
<path d="M5976 3781 c-19 -21 -20 -31 -3 -31 15 0 39 37 28 44 -5 3 -16 -3
-25 -13z"/>
<path d="M6590 3744 c0 -11 7 -29 15 -40 14 -19 14 -19 15 2 0 11 -7 29 -15
40 -14 19 -14 19 -15 -2z"/>
<path d="M5926 3714 c-9 -25 4 -37 19 -17 13 18 11 33 -5 33 -4 0 -11 -7 -14
-16z"/>
<path d="M5896 3644 c-4 -15 -3 -31 2 -36 6 -6 12 1 16 18 4 15 3 31 -2 36 -6
6 -12 -1 -16 -18z"/>
<path d="M5520 3517 c0 -53 3 -97 8 -97 7 0 4 181 -3 189 -3 2 -5 -39 -5 -92z"/>
<path d="M4340 3513 c0 -51 3 -93 8 -93 4 0 6 35 4 77 l-3 78 29 -30 c15 -17
35 -41 45 -55 l16 -24 23 30 c13 16 33 40 46 54 l22 25 -2 -78 c-2 -42 0 -77
5 -77 4 0 7 42 7 93 l-1 92 -32 -39 c-73 -91 -63 -86 -100 -42 -74 91 -66 92
-67 -11z"/>
<path d="M4897 3583 c-13 -12 -7 -40 11 -54 15 -13 16 -12 4 3 -8 10 -11 26
-7 38 6 20 4 25 -8 13z"/>
<path d="M4971 3574 c0 -11 3 -14 6 -6 3 7 2 16 -1 19 -3 4 -6 -2 -5 -13z"/>
<path d="M4820 3497 c0 -42 3 -77 8 -77 8 0 6 139 -2 148 -3 3 -6 -29 -6 -71z"/>
<path d="M5338 3541 c-2 -16 -1 -51 3 -77 6 -45 6 -42 8 29 1 79 -3 99 -11 48z"/>
<path d="M4601 3468 c-1 -27 3 -48 7 -48 4 0 6 17 4 38 -5 58 -10 62 -11 10z"/>
<path d="M4670 3467 c0 -26 3 -47 8 -47 9 0 9 76 -1 86 -4 4 -7 -14 -7 -39z"/>
<path d="M4747 3468 c8 -57 13 -61 13 -10 0 22 -4 43 -9 46 -5 4 -7 -12 -4
-36z"/>
<path d="M4968 3500 c6 -8 12 -23 12 -35 0 -12 -6 -27 -12 -35 -11 -12 -10
-12 5 -1 9 7 17 24 17 36 0 12 -8 29 -17 36 -15 11 -16 11 -5 -1z"/>
<path d="M5052 3465 c23 -47 32 -54 41 -31 4 10 1 13 -8 10 -8 -4 -18 7 -26
30 -7 20 -17 36 -21 36 -4 0 2 -20 14 -45z"/>
<path d="M5103 3483 c-1 -17 2 -21 7 -13 6 9 13 4 24 -19 9 -17 19 -31 21 -31
6 0 45 77 45 87 -1 4 -11 -11 -24 -35 l-22 -44 -19 41 c-21 48 -29 51 -32 14z"/>
<path d="M5261 3468 c-1 -27 3 -48 7 -48 4 0 6 17 4 38 -5 58 -10 62 -11 10z"/>
<path d="M5412 3498 c-18 -18 -15 -54 6 -69 14 -11 15 -11 5 1 -16 18 -17 52
-1 68 7 7 10 12 7 12 -3 0 -10 -5 -17 -12z"/>
<path d="M5595 3464 c0 -24 3 -44 8 -44 9 0 9 77 -1 84 -4 2 -7 -15 -7 -40z"/>
<path d="M4880 3453 c0 -6 8 -17 18 -24 16 -13 16 -13 2 6 -8 11 -16 22 -17
24 -2 2 -3 0 -3 -6z"/>
<path d="M6537 3234 c-16 -13 -27 -29 -25 -35 2 -5 21 6 43 25 23 20 34 35 25
35 -8 0 -28 -11 -43 -25z"/>
<path d="M6457 3183 c-13 -13 -7 -32 8 -27 8 4 15 12 15 20 0 15 -12 19 -23 7z"/>
<path d="M6112 3158 c5 -15 28 -23 28 -10 0 5 -7 13 -16 16 -10 4 -14 1 -12
-6z"/>
<path d="M6395 3149 c-4 -6 -5 -13 -2 -16 7 -7 27 6 27 18 0 12 -17 12 -25 -2z"/>
<path d="M6172 3139 c2 -7 10 -15 17 -17 8 -3 12 1 9 9 -2 7 -10 15 -17 17 -8
3 -12 -1 -9 -9z"/>
<path d="M6231 3131 c-10 -6 -10 -10 -1 -16 13 -8 24 -1 19 14 -3 6 -10 7 -18
2z"/>
<path d="M6280 3125 c0 -8 7 -15 15 -15 8 0 15 7 15 15 0 8 -7 15 -15 15 -8 0
-15 -7 -15 -15z"/>
<path d="M6340 3130 c0 -5 7 -10 15 -10 8 0 15 5 15 10 0 6 -7 10 -15 10 -8 0
-15 -4 -15 -10z"/>
</g>
</svg>
